<?xml version="1.0" standalone="no"?>
<!DOCTYPE svg PUBLIC "-//W3C//DTD SVG 20010904//EN"
 "http://www.w3.org/TR/2001/REC-SVG-20010904/DTD/svg10.dtd">
<svg version="1.0" xmlns="http://www.w3.org/2000/svg"
 width="512.000000pt" height="512.000000pt" viewBox="0 0 512.000000 512.000000"
 preserveAspectRatio="xMidYMid meet">
<metadata>
Created by potrace 1.11, written by Peter Selinger 2001-2013
</metadata>
<g transform="translate(0.000000,512.000000) scale(0.100000,-0.100000)"
fill="#000000" stroke="none">
<path d="M930 4647 l0 -233 -217 1 c-120 1 -225 -1 -233 -2 -13 -4 -15 -37
-15 -234 l1 -229 -233 0 -233 0 2 -697 3 -698 223 -1 c122 -1 226 -2 230 -3 4
0 7 -99 7 -218 -1 -120 1 -224 3 -230 3 -10 59 -13 233 -13 l229 0 0 -229 c0
-174 3 -230 13 -233 6 -2 110 -4 230 -3 119 0 218 -2 218 -5 1 -3 3 -106 3
-230 l2 -225 232 -3 232 -2 1 -58 c0 -31 1 -136 2 -232 l2 -175 220 -1 c121
-1 225 -2 232 -3 8 -1 11 -57 11 -209 0 -114 1 -217 1 -229 l1 -23 230 0 230
0 1 23 c0 12 0 113 1 225 0 139 4 205 12 209 6 4 110 8 231 8 l220 0 2 175 c1
96 2 201 2 233 l1 57 233 0 232 0 0 232 0 233 230 0 230 0 3 233 2 232 230 0
c177 0 230 3 231 13 1 6 2 111 3 232 l1 220 233 0 232 0 0 697 0 698 -233 0
-232 0 0 229 c0 197 -2 230 -15 233 -8 2 -113 4 -232 3 l-218 0 0 232 0 233
-467 0 -468 0 0 -232 0 -233 -230 0 -230 0 -2 -190 c0 -104 -1 -209 -2 -232
l-1 -43 -232 0 -233 0 0 232 0 233 -230 0 -230 0 -2 190 c-1 105 -2 209 -3
233 l0 42 -465 0 -465 0 0 -233z"/>
</g>
</svg>
