<?xml version="1.0" encoding="UTF-8" standalone="no"?>
<svg
   xmlns:dc="http://purl.org/dc/elements/1.1/"
   xmlns:cc="http://creativecommons.org/ns#"
   xmlns:rdf="http://www.w3.org/1999/02/22-rdf-syntax-ns#"
   xmlns:svg="http://www.w3.org/2000/svg"
   xmlns="http://www.w3.org/2000/svg"
   xmlns:sodipodi="http://sodipodi.sourceforge.net/DTD/sodipodi-0.dtd"
   xmlns:inkscape="http://www.inkscape.org/namespaces/inkscape"
   width="256"
   height="72.502998"
   viewBox="0 0 67.733332 19.183085"
   version="1.1"
   id="svg1087"
   inkscape:version="1.0.1 (1.0.1+r73)"
   sodipodi:docname="logo-doatec.svg">
  <defs
     id="defs1081">
    <rect
       x="61.070377"
       y="139.5553"
       width="160.05928"
       height="30.543194"
       id="rect14-3-3" />
    <rect
       x="61.070377"
       y="139.5553"
       width="160.05928"
       height="30.543194"
       id="rect1076" />
    <rect
       x="61.070377"
       y="139.5553"
       width="160.05928"
       height="30.543194"
       id="rect1643" />
    <rect
       x="61.070377"
       y="139.5553"
       width="160.05928"
       height="30.543194"
       id="rect1654" />
    <rect
       x="61.070377"
       y="139.5553"
       width="160.05928"
       height="30.543194"
       id="rect14-3-3-3" />
    <rect
       x="61.070377"
       y="139.5553"
       width="160.05928"
       height="30.543194"
       id="rect2588" />
  </defs>
  <sodipodi:namedview
     id="base"
     pagecolor="#ffffff"
     bordercolor="#666666"
     borderopacity="1.0"
     inkscape:pageopacity="0.0"
     inkscape:pageshadow="2"
     inkscape:zoom="2.8"
     inkscape:cx="117.61652"
     inkscape:cy="54.718911"
     inkscape:document-units="px"
     inkscape:current-layer="layer1"
     inkscape:document-rotation="0"
     showgrid="false"
     units="px"
     inkscape:window-width="1920"
     inkscape:window-height="1028"
     inkscape:window-x="0"
     inkscape:window-y="0"
     inkscape:window-maximized="1" />
  <metadata
     id="metadata1084">
    <rdf:RDF>
      <cc:Work
         rdf:about="">
        <dc:format>image/svg+xml</dc:format>
        <dc:type
           rdf:resource="http://purl.org/dc/dcmitype/StillImage" />
        <dc:title></dc:title>
      </cc:Work>
    </rdf:RDF>
  </metadata>
  <g
     inkscape:label="Layer 1"
     inkscape:groupmode="layer"
     id="layer1">
    <g
       id="g2577"
       transform="matrix(1.6218096,0,0,1.6218096,-533.13517,-9.4486601)"
       style="stroke-width:0.616595">
      <text
         xml:space="preserve"
         id="text12-6-6"
         style="font-style:normal;font-weight:normal;font-size:6.97533px;line-height:1.25;font-family:sans-serif;white-space:pre;shape-inside:url(#rect14-3-3-3);fill:#595959;fill-opacity:1;stroke:none;stroke-width:0.616595;"
         transform="matrix(1.3045865,0,0,1.3045865,264.46773,-175.89325)"><tspan
           x="61.070312"
           y="146.23938"><tspan
             style="font-style:normal;font-variant:normal;font-weight:500;font-stretch:condensed;font-size:6.97533px;font-family:'Barlow Condensed';-inkscape-font-specification:'Barlow Condensed, Medium Condensed';fill:#595959;fill-opacity:1;stroke-width:0.616595">doa</tspan><tspan
             style="font-style:normal;font-variant:normal;font-weight:800;font-stretch:condensed;font-family:'Barlow Condensed';-inkscape-font-specification:'Barlow Condensed, Ultra-Bold Condensed';letter-spacing:0px;word-spacing:0px;fill:#595959;fill-opacity:1;stroke-width:0.616595">tec</tspan><tspan
             style="font-style:normal;font-variant:normal;font-weight:800;font-stretch:condensed;font-size:6.97533px;font-family:'Barlow Condensed';-inkscape-font-specification:'Barlow Condensed, Ultra-Bold Condensed';letter-spacing:0px;word-spacing:0px;fill:#595959;fill-opacity:1;stroke-width:0.616595">_</tspan></tspan></text>
      <g
         id="g2567"
         transform="matrix(0.79830016,0,0,0.79830016,85.107987,20.391973)"
         style="stroke-width:0.772384">
        <path
           id="rect2365"
           style="fill:#ef497b;fill-opacity:1;stroke:none;stroke-width:0.613081;stroke-linecap:round;stroke-linejoin:bevel;paint-order:stroke fill markers"
           d="m 317.0275,-18.246238 h 1.48167 v 1.48167 h -1.48167 z m -1.48169,0 h 1.48167 v 1.48167 h -1.48167 z m -5.92658,0 h 1.48167 v 1.48167 h -1.48167 z m -1.48169,0 h 1.48167 v 1.48167 h -1.48167 z m 10.37159,1.48168 h 1.48166 v 1.48166 h -1.48166 z m -1.48163,0 h 1.48167 v 1.48166 h -1.48167 z m -1.48169,0 h 1.48167 v 1.48166 h -1.48167 z m -1.48163,0 h 1.48167 v 1.48166 h -1.48167 z m -2.96332,0 h 1.48167 v 1.48166 h -1.48167 z m -1.48163,0 h 1.48167 v 1.48166 h -1.48167 z m -1.48169,0 h 1.48167 v 1.48166 h -1.48167 z m -1.48162,0 h 1.48166 v 1.48166 h -1.48166 z m 13.3349,1.48166 h 1.48166 v 1.48166 h -1.48166 z m -1.48169,0 h 1.48166 v 1.48166 h -1.48166 z m -1.48163,0 h 1.48167 v 1.48166 h -1.48167 z m -1.48169,0 h 1.48167 v 1.48166 h -1.48167 z m -1.48163,0 h 1.48167 v 1.48166 h -1.48167 z m -1.48169,0 h 1.48167 v 1.48166 h -1.48167 z m -1.48163,0 h 1.48167 v 1.48166 h -1.48167 z m -1.48163,0 h 1.48167 v 1.48166 h -1.48167 z m -1.48169,0 h 1.48167 v 1.48166 h -1.48167 z m -1.48162,0 h 1.48166 v 1.48166 h -1.48166 z m -1.48169,0 h 1.48166 v 1.48166 h -1.48166 z m 14.81659,1.48168 h 1.48166 v 1.48167 h -1.48166 z m -1.48169,0 h 1.48166 v 1.48167 h -1.48166 z m -1.48163,0 h 1.48167 v 1.48167 h -1.48167 z m -1.48169,0 h 1.48167 v 1.48167 h -1.48167 z m -1.48163,0 h 1.48167 v 1.48167 h -1.48167 z m -1.48169,0 h 1.48167 v 1.48167 h -1.48167 z m -1.48163,0 h 1.48167 v 1.48167 h -1.48167 z m -1.48163,0 h 1.48167 v 1.48167 h -1.48167 z m -1.48169,0 h 1.48167 v 1.48167 h -1.48167 z m -1.48162,0 h 1.48166 v 1.48167 h -1.48166 z m -1.48169,0 h 1.48166 v 1.48167 h -1.48166 z m 14.81659,1.48167 h 1.48166 v 1.48167 h -1.48166 z m -1.48169,0 h 1.48166 v 1.48167 h -1.48166 z m -1.48163,0 h 1.48167 v 1.48167 h -1.48167 z m -1.48169,0 h 1.48167 v 1.48167 h -1.48167 z m -1.48163,0 h 1.48167 v 1.48167 h -1.48167 z m -1.48169,0 h 1.48167 v 1.48167 h -1.48167 z m -1.48163,0 h 1.48167 v 1.48167 h -1.48167 z m -1.48163,0 h 1.48167 v 1.48167 h -1.48167 z m -1.48169,0 h 1.48167 v 1.48167 h -1.48167 z m -1.48162,0 h 1.48166 v 1.48167 h -1.48166 z m -1.48169,0 h 1.48166 v 1.48167 h -1.48166 z m 13.3349,1.48168 h 1.48166 v 1.4816601 h -1.48166 z m -1.48163,0 h 1.48167 v 1.4816601 h -1.48167 z m -1.48169,0 h 1.48167 v 1.4816601 h -1.48167 z m -1.48163,0 h 1.48167 v 1.4816601 h -1.48167 z m -1.48169,0 h 1.48167 v 1.4816601 h -1.48167 z m -1.48163,0 h 1.48167 v 1.4816601 h -1.48167 z m -1.48163,0 h 1.48167 v 1.4816601 h -1.48167 z m -1.48169,0 h 1.48167 v 1.4816601 h -1.48167 z m -1.48162,0 h 1.48166 v 1.4816601 h -1.48166 z m 10.37158,1.4816701 h 1.48167 v 1.48167 h -1.48167 z m -1.48169,0 h 1.48167 v 1.48167 h -1.48167 z m -1.48163,0 h 1.48167 v 1.48167 h -1.48167 z m -1.48169,0 h 1.48167 v 1.48167 h -1.48167 z m -1.48163,0 h 1.48167 v 1.48167 h -1.48167 z m -1.48163,0 h 1.48167 v 1.48167 h -1.48167 z m -1.48169,0 h 1.48167 v 1.48167 h -1.48167 z m 7.40827,1.48168 h 1.48167 v 1.48167 h -1.48167 z m -1.48163,0 h 1.48167 v 1.48167 h -1.48167 z m -1.48169,0 h 1.48167 v 1.48167 h -1.48167 z m -1.48163,0 h 1.48167 v 1.48167 h -1.48167 z m -1.48163,0 h 1.48167 v 1.48167 h -1.48167 z m 4.44495,1.48167 h 1.48167 v 1.48167 h -1.48167 z m -1.48169,0 h 1.48167 v 1.48167 h -1.48167 z m -1.48163,0 h 1.48167 v 1.48167 h -1.48167 z m 1.48163,1.48167 h 1.48167 v 1.48167 h -1.48167 z" />
        <path
           id="rect2379"
           style="fill:#ffffff;fill-opacity:1;stroke:none;stroke-width:0.613081;stroke-linecap:round;stroke-linejoin:bevel;paint-order:stroke fill markers"
           d="m 315.54585,-13.801208 h 1.48167 v 1.48167 h -1.48167 z m -5.92658,0 h 1.48167 v 1.48167 h -1.48167 z m 5.92664,1.48166 h 1.48167 v 1.48167 h -1.48167 z m -1.48169,1.48168 h 1.48167 v 1.4816601 h -1.48167 z m -1.48169,0 h 1.48167 v 1.4816601 h -1.48167 z m -1.48169,0 h 1.48167 v 1.4816601 h -1.48167 z m -1.48169,-1.48168 h 1.48167 v 1.48167 h -1.48167 z" />
      </g>
    </g>
  </g>
</svg>
